<?xml version="1.0" standalone="no"?>
<!DOCTYPE svg PUBLIC "-//W3C//DTD SVG 20010904//EN"
 "http://www.w3.org/TR/2001/REC-SVG-20010904/DTD/svg10.dtd">
<svg version="1.0" xmlns="http://www.w3.org/2000/svg"
 width="768.000000pt" height="768.000000pt" viewBox="0 0 768.000000 768.000000"
 preserveAspectRatio="xMidYMid meet">
<metadata>
Created by potrace 1.11, written by Peter Selinger 2001-2013
</metadata>
<g transform="translate(0.000000,768.000000) scale(0.100000,-0.100000)"
fill="#000000" stroke="none">
<path d="M3599 7676 c-2 -2 -42 -6 -89 -10 -47 -4 -96 -8 -110 -10 -14 -2 -48
-7 -75 -10 -28 -4 -66 -9 -85 -12 -36 -5 -234 -43 -260 -50 -8 -2 -49 -12 -90
-23 -41 -10 -90 -24 -108 -29 -18 -6 -35 -11 -37 -11 -12 1 -201 -64 -210 -71
-5 -5 -14 -9 -20 -9 -19 -2 -80 -24 -132 -47 -28 -13 -54 -24 -57 -24 -13 0
-282 -134 -288 -144 -4 -6 -8 -8 -8 -4 0 4 -24 -7 -52 -24 -29 -17 -67 -39
-84 -48 -156 -89 -445 -296 -554 -396 -14 -13 -54 -49 -89 -81 -110 -100 -266
-260 -339 -351 -19 -23 -42 -50 -51 -61 -10 -11 -26 -32 -37 -46 -19 -26 -32
-43 -67 -84 -9 -12 -17 -25 -17 -30 0 -5 -4 -11 -8 -13 -23 -9 -218 -322 -298
-478 -27 -52 -53 -98 -59 -102 -6 -5 -6 -8 0 -8 5 0 4 -5 -3 -12 -7 -7 -12
-20 -12 -30 0 -10 -4 -18 -10 -18 -5 0 -10 -9 -10 -20 0 -11 -4 -20 -8 -20 -5
0 -9 -6 -9 -12 0 -7 -9 -33 -20 -58 -38 -84 -52 -120 -45 -120 4 0 2 -4 -3 -8
-17 -12 -110 -293 -130 -392 -2 -8 -12 -51 -24 -96 -11 -44 -23 -98 -27 -119
-3 -20 -8 -47 -10 -59 -4 -21 -14 -76 -19 -106 -2 -9 -6 -43 -10 -75 -4 -33
-9 -68 -11 -77 -26 -144 -25 -721 1 -869 2 -13 7 -44 9 -69 8 -70 15 -121 26
-175 5 -27 11 -61 14 -75 2 -14 12 -56 21 -95 9 -38 18 -77 20 -85 2 -8 10
-42 19 -75 10 -33 18 -64 20 -70 2 -8 29 -95 41 -135 1 -3 4 -12 8 -20 3 -8
13 -37 22 -65 9 -27 22 -63 29 -80 7 -16 28 -66 46 -110 69 -164 181 -385 256
-503 19 -29 34 -56 34 -61 0 -5 3 -11 8 -13 8 -3 72 -96 72 -104 0 -3 5 -10
10 -17 6 -7 29 -37 51 -67 68 -93 82 -111 147 -189 127 -152 244 -274 399
-417 74 -69 255 -214 330 -265 26 -18 50 -36 51 -41 2 -4 10 -8 18 -8 8 0 14
-4 14 -10 0 -5 4 -10 10 -10 5 0 36 -18 67 -40 32 -22 63 -40 70 -40 6 0 13
-4 15 -9 6 -17 332 -191 357 -191 5 0 11 -4 13 -8 2 -4 39 -23 83 -41 44 -18
91 -38 105 -44 14 -6 27 -11 30 -12 15 -5 47 -18 65 -26 130 -56 530 -162 702
-185 26 -3 51 -8 54 -10 3 -2 34 -6 70 -9 35 -4 70 -8 77 -10 76 -25 819 -25
862 0 3 1 32 5 65 9 33 3 87 11 120 17 33 5 74 12 90 14 17 3 39 7 50 10 11 2
51 11 88 19 288 63 595 174 879 317 158 79 177 89 196 107 7 6 18 12 23 12 5
0 43 22 85 50 41 27 78 50 80 50 6 0 64 41 82 58 8 7 27 19 43 27 16 9 29 19
29 24 0 4 10 13 23 18 21 11 191 145 232 183 11 11 53 50 94 87 101 93 215
212 311 323 94 109 232 294 300 400 5 8 20 31 33 50 13 19 34 55 47 80 14 25
27 47 30 50 20 20 186 359 225 460 20 52 40 104 45 115 9 20 80 230 84 250 2
6 8 30 15 55 7 25 15 54 18 65 6 30 9 38 16 60 3 11 8 31 11 45 3 14 8 36 11
50 3 14 7 39 10 55 3 17 8 41 10 55 10 50 14 69 21 117 3 26 8 57 10 68 2 11
6 47 9 80 3 33 10 96 14 140 9 82 6 582 -3 645 -3 19 -8 60 -12 90 -3 30 -7
71 -10 90 -5 42 -31 195 -39 230 -4 14 -9 39 -11 55 -3 17 -12 55 -21 85 -8
30 -16 66 -19 80 -3 14 -19 70 -36 125 -18 55 -32 102 -33 105 -3 18 -40 117
-51 139 -8 14 -14 31 -14 37 0 17 -56 144 -138 314 -56 116 -147 277 -231 405
-44 68 -149 215 -160 225 -4 3 -19 23 -36 45 -16 22 -32 42 -35 45 -3 3 -18
21 -34 40 -117 143 -292 320 -470 475 -68 59 -301 235 -311 235 -3 0 -15 9
-27 20 -12 11 -28 20 -35 20 -7 0 -13 5 -13 10 0 6 -6 10 -14 10 -8 0 -16 4
-18 8 -10 24 -532 302 -568 302 -5 0 -18 4 -28 9 -43 23 -190 78 -282 106 -30
9 -62 19 -70 22 -8 3 -19 7 -25 9 -5 1 -54 14 -108 28 -54 15 -119 31 -145 36
-77 16 -145 29 -177 34 -16 3 -46 8 -65 12 -44 8 -67 11 -155 19 -38 3 -77 9
-85 12 -16 6 -585 15 -591 9z"/>
</g>
</svg>
